# xmcd CD database file
#
# Track frame offsets:
#	150
#	18037
#	34121
#	52636
#	69952
#	90531
#	105767
#	122749
#	137758
#	152475
#	166938
#	183640
#	203043
#	220461
#	235427
#	253509
#	269271
#	282687
#
# Disc length: 4005 seconds
#
# Revision: 3
# Processed by: cddbd v1.5.1PL0 Copyright (c) Steve Scherf et al.
# Submitted via: CDex 1.51
#
DISCID=f10fa312
DTITLE=Various Artist - Promo Only Canada March 2005 Country Radio
DYEAR=2005
DGENRE=Country
TTITLE0=Lonestar - Class Reunion (That Used To Be Us)
TTITLE1=SheDaisy - Don't Worry 'Bout A Thing
TTITLE2=Paul Brandt - Home
TTITLE3=Aaron Lines - Waitin' On The Wonderful
TTITLE4=Tim McGraw - Drugs Or Jesus
TTITLE5=Emerson Drive - If You Were My Girl
TTITLE6=Uncle Kracker  - Writing It Down
TTITLE7=Blake Shelton - Goodbye Time
TTITLE8=Jo Dee Messina - My Give A Damn's Busted
TTITLE9=Buddy Jewel - If She Were Any Other Woman
TTITLE10=Katrina Elam - I Want A Cowboy
TTITLE11=Jedd Hughes - Soldier For The Lonely (Album Version)
TTITLE12=Johnny Reid - Sixty To Zero
TTITLE13=Trick Pony - It's A Heartache
TTITLE14=Rebecca Lynn Howard - That's Why I Hate Pontiacs
TTITLE15=Lila McCann - Go Easy On Me
TTITLE16=Mark Chesnutt - I'm A Saint
TTITLE17=Jay Teter - Until You Find Your Mr. Right
EXTD=YEAR: 2005
EXTT0=
EXTT1=
EXTT2=
EXTT3=
EXTT4=
EXTT5=
EXTT6=
EXTT7=
EXTT8=
EXTT9=
EXTT10=
EXTT11=
EXTT12=
EXTT13=
EXTT14=
EXTT15=
EXTT16=
EXTT17=
PLAYORDER=
